<?xml version="1.0" encoding="UTF-8" standalone="no"?>
<!-- Created with Inkscape (http://www.inkscape.org/) -->

<svg
   xmlns:dc="http://purl.org/dc/elements/1.1/"
   xmlns:cc="http://creativecommons.org/ns#"
   xmlns:rdf="http://www.w3.org/1999/02/22-rdf-syntax-ns#"
   xmlns:svg="http://www.w3.org/2000/svg"
   xmlns="http://www.w3.org/2000/svg"
   xmlns:sodipodi="http://sodipodi.sourceforge.net/DTD/sodipodi-0.dtd"
   xmlns:inkscape="http://www.inkscape.org/namespaces/inkscape"
   width="12.7mm"
   height="12.7mm"
   viewBox="0 0 12.7 12.7"
   version="1.1"
   id="svg11190"
   inkscape:version="0.92.4 (5da689c313, 2019-01-14)"
   sodipodi:docname="active.svg">
  <defs
     id="defs11184" />
  <sodipodi:namedview
     id="base"
     pagecolor="#ffffff"
     bordercolor="#666666"
     borderopacity="1.0"
     inkscape:pageopacity="0.0"
     inkscape:pageshadow="2"
     inkscape:zoom="6.1183391"
     inkscape:cx="19.226648"
     inkscape:cy="3.094813"
     inkscape:document-units="mm"
     inkscape:current-layer="layer1"
     showgrid="false" />
  <metadata
     id="metadata11187">
    <rdf:RDF>
      <cc:Work
         rdf:about="">
        <dc:format>image/svg+xml</dc:format>
        <dc:type
           rdf:resource="http://purl.org/dc/dcmitype/StillImage" />
        <dc:title></dc:title>
      </cc:Work>
    </rdf:RDF>
  </metadata>
  <g
     inkscape:label="Layer 1"
     inkscape:groupmode="layer"
     id="layer1"
     transform="translate(-212.87619,-148.53095)">
    <path
       inkscape:label="#path2466"
       id="path11180"
       d="m 225.57619,154.88096 c 0,3.50704 -2.843,6.34999 -6.35,6.34999 -3.507,0 -6.35,-2.84295 -6.35,-6.34999 0,-3.50702 2.843,-6.35001 6.35,-6.35001 3.507,0 6.35,2.84299 6.35,6.35001 z m -7.08454,3.36227 4.7113,-4.7113 c 0.1602,-0.1602 0.1602,-0.41918 0,-0.57935 l -0.57932,-0.57937 c -0.1602,-0.1602 -0.41919,-0.1602 -0.57943,0 l -3.8422,3.84225 -1.79385,-1.79389 c -0.1602,-0.1602 -0.4192,-0.1602 -0.5794,0 l -0.57935,0.57939 c -0.1602,0.1602 -0.1602,0.41919 0,0.57937 l 2.66291,2.66287 c 0.1602,0.1602 0.41919,0.1602 0.57934,3e-5 z"
       inkscape:connector-curvature="0"
       style="fill:none;fill-opacity:1;stroke-width:0.26458329"
       inkscape:export-xdpi="96"
       inkscape:export-ydpi="96" />
    <path
       style="fill:#73ba25;fill-opacity:1;stroke-width:0.26458329"
       inkscape:connector-curvature="0"
       d="m 221.73968,154.88095 c 0,1.38817 -1.12533,2.51347 -2.51349,2.51347 -1.38816,0 -2.51349,-1.1253 -2.51349,-2.51347 0,-1.38815 1.12533,-2.51347 2.51349,-2.51347 1.38816,0 2.51349,1.12532 2.51349,2.51347 z m -2.80424,1.33087 1.86485,-1.86484 c 0.0634,-0.0634 0.0634,-0.16592 0,-0.22932 l -0.22931,-0.22933 c -0.0634,-0.0634 -0.16593,-0.0634 -0.22936,0 l -1.52083,1.52085 -0.71005,-0.71006 c -0.0634,-0.0634 -0.16593,-0.0634 -0.22934,0 l -0.22932,0.22933 c -0.0634,0.0634 -0.0634,0.16593 0,0.22933 l 1.05404,1.05403 c 0.0634,0.0634 0.16593,0.0634 0.22932,10e-6 z"
       id="active"
       inkscape:label="#path2466"
       inkscape:export-xdpi="96"
       inkscape:export-ydpi="96" />
  </g>
</svg>
